<svg width="66" height="66" viewBox="0 0 66 66" fill="none" xmlns="http://www.w3.org/2000/svg">
<path d="M60.0105 20.4353C59.7576 20.0697 59.4198 19.7709 59.0261 19.5645C58.6324 19.3581 58.1945 19.2502 57.75 19.25H20.1658L16.9922 11.6325C16.5761 10.6294 15.8715 9.77238 14.9678 9.17019C14.064 8.568 13.0018 8.24774 11.9158 8.25001H5.5V13.75H11.9158L24.9618 45.0588C25.1707 45.5597 25.5232 45.9876 25.9749 46.2885C26.4266 46.5895 26.9572 46.7501 27.5 46.75H49.5C50.6468 46.75 51.6725 46.0378 52.0768 44.968L60.3268 22.968C60.4827 22.5517 60.5353 22.1038 60.4803 21.6627C60.4252 21.2216 60.264 20.8004 60.0105 20.4353ZM47.5942 41.25H29.3342L22.4592 24.75H53.7817L47.5942 41.25Z" fill="white"/>
<path d="M28.875 57.75C31.1532 57.75 33 55.9032 33 53.625C33 51.3468 31.1532 49.5 28.875 49.5C26.5968 49.5 24.75 51.3468 24.75 53.625C24.75 55.9032 26.5968 57.75 28.875 57.75Z" fill="white"/>
<path d="M48.125 57.75C50.4032 57.75 52.25 55.9032 52.25 53.625C52.25 51.3468 50.4032 49.5 48.125 49.5C45.8468 49.5 44 51.3468 44 53.625C44 55.9032 45.8468 57.75 48.125 57.75Z" fill="white"/>
</svg>
