<svg width="64" height="64" viewBox="0 0 64 64" fill="none" xmlns="http://www.w3.org/2000/svg">
<path d="M28 56C30.2091 56 32 54.2091 32 52C32 49.7909 30.2091 48 28 48C25.7909 48 24 49.7909 24 52C24 54.2091 25.7909 56 28 56Z" fill="white"/>
<path d="M46.6666 56C48.8758 56 50.6666 54.2091 50.6666 52C50.6666 49.7909 48.8758 48 46.6666 48C44.4575 48 42.6666 49.7909 42.6666 52C42.6666 54.2091 44.4575 56 46.6666 56Z" fill="white"/>
<path d="M34.6667 34.6674H40V26.6941H47.9734V21.3607H40V13.4141H34.6667V21.3607H26.6934V26.6941H34.6667V34.6674Z" fill="white"/>
<path d="M26.6667 45.3333H48C48.5372 45.3318 49.0614 45.168 49.5039 44.8634C49.9464 44.5589 50.2867 44.1278 50.48 43.6267L58.0267 24H52.32L46.16 40H28.4534L16.48 11.28C16.0741 10.3068 15.3888 9.47585 14.5107 8.89204C13.6326 8.30823 12.6012 7.99782 11.5467 8.00001H5.33337V13.3333H11.5467L24.2134 43.68C24.4134 44.167 24.7532 44.5839 25.1897 44.8781C25.6263 45.1723 26.1402 45.3307 26.6667 45.3333Z" fill="white"/>
</svg>
