<svg width="36" height="36" viewBox="0 0 36 36" fill="none" xmlns="http://www.w3.org/2000/svg">
<path d="M18 33C26.1315 33 33 26.1315 33 18C33 9.8685 26.1315 3 18 3C9.8685 3 3 9.8685 3 18C3 26.1315 9.8685 33 18 33ZM18 6C24.5055 6 30 11.4945 30 18C30 24.5055 24.5055 30 18 30C11.4945 30 6 24.5055 6 18C6 11.4945 11.4945 6 18 6Z" fill="white"/>
<path d="M18 25.5C19.3515 25.5 21.8715 25.248 23.5605 23.562L21.4395 21.438C20.775 22.1025 19.488 22.5 18 22.5C15.561 22.5 13.5 20.439 13.5 18C13.5 15.561 15.561 13.5 18 13.5C19.4895 13.5 20.7765 13.8975 21.4395 14.5605L23.5605 12.4395C21.873 10.752 19.3515 10.5 18 10.5C13.8645 10.5 10.5 13.8645 10.5 18C10.5 22.1355 13.8645 25.5 18 25.5Z" fill="white"/>
</svg>
