<svg width="48" height="48" viewBox="0 0 48 48" fill="none" xmlns="http://www.w3.org/2000/svg">
<path d="M41.894 16.6099C41.8738 15.0952 41.5903 13.5955 41.056 12.1779C40.5927 10.9822 39.8851 9.89631 38.9784 8.98958C38.0716 8.08284 36.9857 7.37522 35.79 6.91191C34.3907 6.38663 32.9124 6.1026 31.418 6.07191C29.494 5.98591 28.884 5.96191 24 5.96191C19.116 5.96191 18.49 5.96191 16.58 6.07191C15.0863 6.10282 13.6087 6.38685 12.21 6.91191C11.0141 7.37489 9.92806 8.0824 9.02128 8.98918C8.11451 9.89596 7.407 10.982 6.94402 12.1779C6.41768 13.5762 6.13426 15.0541 6.10602 16.5479C6.02002 18.4739 5.99402 19.0839 5.99402 23.9679C5.99402 28.8519 5.99402 29.4759 6.10602 31.3879C6.13602 32.8839 6.41802 34.3599 6.94402 35.7619C7.40777 36.9574 8.11581 38.0431 9.02289 38.9495C9.92997 39.8559 11.0161 40.5631 12.212 41.0259C13.6069 41.5723 15.0848 41.8767 16.582 41.9259C18.508 42.0119 19.118 42.0379 24.002 42.0379C28.886 42.0379 29.512 42.0379 31.422 41.9259C32.9163 41.8965 34.3947 41.6131 35.794 41.0879C36.9894 40.6241 38.075 39.9163 38.9817 39.0096C39.8884 38.1029 40.5962 37.0173 41.06 35.8219C41.586 34.4219 41.868 32.9459 41.898 31.4479C41.984 29.5239 42.01 28.9139 42.01 24.0279C42.006 19.1439 42.006 18.5239 41.894 16.6099ZM23.988 33.2039C18.88 33.2039 14.742 29.0659 14.742 23.9579C14.742 18.8499 18.88 14.7119 23.988 14.7119C26.4402 14.7119 28.792 15.686 30.5259 17.42C32.2599 19.154 33.234 21.5057 33.234 23.9579C33.234 26.4101 32.2599 28.7619 30.5259 30.4958C28.792 32.2298 26.4402 33.2039 23.988 33.2039ZM33.602 16.5259C33.3188 16.5262 33.0383 16.4706 32.7766 16.3623C32.5149 16.2541 32.2772 16.0953 32.0769 15.895C31.8767 15.6948 31.7179 15.457 31.6096 15.1953C31.5013 14.9336 31.4458 14.6531 31.446 14.3699C31.446 14.0869 31.5018 13.8067 31.6101 13.5452C31.7184 13.2838 31.8771 13.0462 32.0772 12.8461C32.2773 12.646 32.5149 12.4873 32.7763 12.379C33.0378 12.2707 33.318 12.2149 33.601 12.2149C33.884 12.2149 34.1642 12.2707 34.4257 12.379C34.6872 12.4873 34.9247 12.646 35.1248 12.8461C35.3249 13.0462 35.4837 13.2838 35.592 13.5452C35.7003 13.8067 35.756 14.0869 35.756 14.3699C35.756 15.5619 34.792 16.5259 33.602 16.5259Z" fill="url(#paint0_linear_205_2897)"/>
<path d="M23.988 29.9641C27.305 29.9641 29.994 27.2752 29.994 23.9581C29.994 20.6411 27.305 17.9521 23.988 17.9521C20.671 17.9521 17.982 20.6411 17.982 23.9581C17.982 27.2752 20.671 29.9641 23.988 29.9641Z" fill="black"/>
<defs>
<linearGradient id="paint0_linear_205_2897" x1="24.002" y1="5.96191" x2="24.002" y2="42.0379" gradientUnits="userSpaceOnUse">
<stop offset="0.479167" stop-color="#D62525"/>
<stop offset="0.666667" stop-color="#B13030" stop-opacity="0.5"/>
</linearGradient>
</defs>
</svg>
