<svg width="65" height="65" viewBox="0 0 65 65" fill="none" xmlns="http://www.w3.org/2000/svg">
<path d="M56.1587 22.5821C56.1318 20.5624 55.7537 18.5628 55.0413 16.6728C54.4236 15.0785 53.4801 13.6306 52.2711 12.4216C51.0621 11.2127 49.6143 10.2692 48.02 9.65143C46.1542 8.95105 44.1831 8.57234 42.1907 8.53143C39.6253 8.41677 38.812 8.38477 32.3 8.38477C25.788 8.38477 24.9533 8.38477 22.4067 8.53143C20.4151 8.57264 18.4449 8.95135 16.58 9.65143C14.9855 10.2687 13.5374 11.2121 12.3283 12.4211C11.1193 13.6302 10.176 15.0783 9.55865 16.6728C8.85687 18.5371 8.47898 20.5077 8.44132 22.4994C8.32665 25.0674 8.29198 25.8808 8.29198 32.3928C8.29198 38.9048 8.29198 39.7368 8.44132 42.2861C8.48132 44.2808 8.85732 46.2488 9.55865 48.1181C10.177 49.7121 11.121 51.1596 12.3305 52.3682C13.5399 53.5767 14.9882 54.5196 16.5827 55.1368C18.4425 55.8653 20.413 56.2711 22.4093 56.3368C24.9773 56.4514 25.7907 56.4861 32.3027 56.4861C38.8147 56.4861 39.6493 56.4861 42.196 56.3368C44.1884 56.2975 46.1596 55.9197 48.0253 55.2194C49.6192 54.601 51.0667 53.6572 52.2756 52.4483C53.4845 51.2395 54.4282 49.7919 55.0467 48.1981C55.748 46.3314 56.124 44.3634 56.164 42.3661C56.2787 39.8008 56.3133 38.9874 56.3133 32.4728C56.308 25.9608 56.308 25.1341 56.1587 22.5821ZM32.284 44.7074C25.4733 44.7074 19.956 39.1901 19.956 32.3794C19.956 25.5688 25.4733 20.0514 32.284 20.0514C35.5536 20.0514 38.6893 21.3503 41.0012 23.6622C43.3131 25.9742 44.612 29.1098 44.612 32.3794C44.612 35.649 43.3131 38.7847 41.0012 41.0966C38.6893 43.4086 35.5536 44.7074 32.284 44.7074ZM45.1027 22.4701C44.725 22.4704 44.3511 22.3963 44.0022 22.252C43.6532 22.1077 43.3362 21.8959 43.0692 21.6289C42.8022 21.3619 42.5904 21.0449 42.4461 20.6959C42.3018 20.347 42.2276 19.973 42.228 19.5954C42.228 19.2181 42.3023 18.8445 42.4467 18.4959C42.5911 18.1472 42.8028 17.8305 43.0696 17.5637C43.3364 17.2969 43.6531 17.0852 44.0017 16.9408C44.3504 16.7964 44.724 16.7221 45.1013 16.7221C45.4787 16.7221 45.8523 16.7964 46.2009 16.9408C46.5495 17.0852 46.8663 17.2969 47.1331 17.5637C47.3999 17.8305 47.6115 18.1472 47.7559 18.4959C47.9003 18.8445 47.9747 19.2181 47.9747 19.5954C47.9747 21.1848 46.6893 22.4701 45.1027 22.4701Z" fill="white"/>
<path d="M32.284 40.3871C36.7067 40.3871 40.292 36.8018 40.292 32.3791C40.292 27.9564 36.7067 24.3711 32.284 24.3711C27.8613 24.3711 24.276 27.9564 24.276 32.3791C24.276 36.8018 27.8613 40.3871 32.284 40.3871Z" fill="white"/>
</svg>
