<svg width="65" height="65" viewBox="0 0 65 65" fill="none" xmlns="http://www.w3.org/2000/svg">
<path d="M53.8333 11.168H16.5C13.5586 11.168 11.1666 13.56 11.1666 16.5013V29.8346H16.5V21.8346L33.5666 34.6346C34.0284 34.9804 34.5897 35.1673 35.1666 35.1673C35.7435 35.1673 36.3049 34.9804 36.7666 34.6346L53.8333 21.8346V45.8346H32.5V51.168H53.8333C56.7746 51.168 59.1666 48.776 59.1666 45.8346V16.5013C59.1666 13.56 56.7746 11.168 53.8333 11.168ZM35.1666 29.168L18.276 16.5013H52.0573L35.1666 29.168Z" fill="white"/>
<path d="M5.83337 32.5H24.5V37.8333H5.83337V32.5ZM11.1667 40.5H27.1667V45.8333H11.1667V40.5ZM19.1667 48.5H29.8334V53.8333H19.1667V48.5Z" fill="white"/>
</svg>
