<svg width="52" height="52" viewBox="0 0 52 52" fill="none" xmlns="http://www.w3.org/2000/svg">
<path d="M39.7187 28.2806C39.4712 28.0327 39.1773 27.8361 38.8538 27.7019C38.5303 27.5678 38.1836 27.4987 37.8333 27.4987C37.4831 27.4987 37.1363 27.5678 36.8128 27.7019C36.4893 27.8361 36.1954 28.0327 35.948 28.2806L31.6973 32.5312C29.7267 31.9446 26.0493 30.6112 23.7187 28.2806C21.388 25.9499 20.0547 22.2726 19.468 20.3019L23.7187 16.0512C23.9665 15.8038 24.1632 15.5099 24.2973 15.1864C24.4315 14.8629 24.5005 14.5161 24.5005 14.1659C24.5005 13.8157 24.4315 13.4689 24.2973 13.1454C24.1632 12.8219 23.9665 12.528 23.7187 12.2806L13.052 1.6139C12.8046 1.36605 12.5107 1.16941 12.1872 1.03525C11.8637 0.901087 11.5169 0.832031 11.1667 0.832031C10.8164 0.832031 10.4697 0.901087 10.1461 1.03525C9.82264 1.16941 9.52876 1.36605 9.28133 1.6139L2.04933 8.8459C1.036 9.85923 0.465328 11.2512 0.486661 12.6726C0.547995 16.4699 1.55333 29.6592 11.948 40.0539C22.3427 50.4486 35.532 51.4512 39.332 51.5152H39.4067C40.8147 51.5152 42.1453 50.9606 43.1533 49.9526L50.3853 42.7206C50.6332 42.4731 50.8298 42.1793 50.964 41.8557C51.0981 41.5322 51.1672 41.1855 51.1672 40.8352C51.1672 40.485 51.0981 40.1382 50.964 39.8147C50.8298 39.4912 50.6332 39.1973 50.3853 38.9499L39.7187 28.2806ZM39.38 46.1792C36.052 46.1232 24.6653 45.2299 15.7187 36.2806C6.74266 27.3046 5.87333 15.8779 5.81999 12.6166L11.1667 7.2699L18.0627 14.1659L14.6147 17.6139C14.3012 17.9271 14.0708 18.3135 13.9441 18.7381C13.8175 19.1627 13.7987 19.6122 13.8893 20.0459C13.9533 20.3526 15.5187 27.6246 19.9453 32.0512C24.372 36.4779 31.644 38.0432 31.9507 38.1072C32.3841 38.2005 32.8341 38.1831 33.2591 38.0568C33.6841 37.9306 34.0705 37.6994 34.3827 37.3846L37.8333 33.9366L44.7293 40.8326L39.38 46.1792Z" fill="white"/>
</svg>
