<svg width="48" height="48" viewBox="0 0 48 48" fill="none" xmlns="http://www.w3.org/2000/svg">
<path d="M39.2661 15.9941C39.2921 16.3441 39.2921 16.6921 39.2921 17.0401C39.2921 27.6901 31.1861 39.9621 16.3721 39.9621C11.8081 39.9621 7.56806 38.6401 4.00006 36.3441C4.64806 36.4181 5.27206 36.4441 5.94606 36.4441C9.57205 36.4528 13.0954 35.2404 15.9481 33.0021C14.2669 32.9717 12.6372 32.417 11.2865 31.4156C9.93586 30.4141 8.93163 29.0159 8.41406 27.4161C8.91206 27.4901 9.41206 27.5401 9.93606 27.5401C10.6581 27.5401 11.3841 27.4401 12.0581 27.2661C10.2336 26.8977 8.59301 25.9088 7.4153 24.4675C6.23759 23.0261 5.59545 21.2214 5.59806 19.3601V19.2601C6.67206 19.8581 7.91806 20.2321 9.23806 20.2821C8.13224 19.5473 7.2255 18.5501 6.59874 17.3797C5.97198 16.2092 5.64469 14.9018 5.64606 13.5741C5.64606 12.0781 6.04406 10.7061 6.74206 9.51009C8.76634 12.0001 11.2911 14.0372 14.1527 15.4894C17.0144 16.9416 20.1492 17.7765 23.3541 17.9401C23.2301 17.3401 23.1541 16.7181 23.1541 16.0941C23.1535 15.036 23.3615 13.9882 23.7662 13.0106C24.1709 12.0329 24.7643 11.1446 25.5124 10.3965C26.2606 9.64829 27.1489 9.05491 28.1265 8.65024C29.1042 8.24558 30.152 8.03756 31.2101 8.03809C33.5301 8.03809 35.6241 9.01009 37.0961 10.5821C38.8996 10.2333 40.6291 9.57493 42.2081 8.63609C41.6069 10.4977 40.3476 12.0763 38.6661 13.0761C40.2656 12.8936 41.8289 12.473 43.3041 11.8281C42.2023 13.4343 40.8371 14.8428 39.2661 15.9941Z" fill="#24ABF7"/>
</svg>
