<svg width="65" height="65" viewBox="0 0 65 65" fill="none" xmlns="http://www.w3.org/2000/svg">
<path d="M52.6546 21.7613C52.6893 22.228 52.6893 22.692 52.6893 23.156C52.6893 37.356 41.8813 53.7187 22.1293 53.7187C16.044 53.7187 10.3906 51.956 5.63332 48.8947C6.49732 48.9933 7.32932 49.028 8.22798 49.028C13.0626 49.0397 17.7604 47.423 21.564 44.4387C19.3224 44.3981 17.1495 43.6585 15.3486 42.3233C13.5477 40.988 12.2087 39.1237 11.5186 36.9907C12.1826 37.0893 12.8493 37.156 13.548 37.156C14.5106 37.156 15.4786 37.0227 16.3773 36.7907C13.9447 36.2995 11.7572 34.9809 10.187 33.0591C8.61669 31.1374 7.7605 28.731 7.76398 26.2493V26.116C9.19598 26.9133 10.8573 27.412 12.6173 27.4787C11.1429 26.4989 9.9339 25.1694 9.09822 23.6088C8.26254 22.0481 7.82615 20.3049 7.82798 18.5347C7.82798 16.54 8.35865 14.7107 9.28932 13.116C11.9884 16.436 15.3547 19.1522 19.1702 21.0884C22.9858 23.0247 27.1655 24.1379 31.4387 24.356C31.2733 23.556 31.172 22.7267 31.172 21.8947C31.1713 20.4839 31.4486 19.0868 31.9882 17.7833C32.5277 16.4798 33.3189 15.2954 34.3165 14.2978C35.314 13.3003 36.4984 12.5091 37.802 11.9695C39.1055 11.43 40.5025 11.1526 41.9133 11.1533C45.0066 11.1533 47.7987 12.4493 49.7613 14.5453C52.166 14.0803 54.4721 13.2024 56.5773 11.9507C55.7757 14.4328 54.0967 16.5376 51.8547 17.8707C53.9874 17.6274 56.0718 17.0665 58.0387 16.2067C56.5697 18.3483 54.7494 20.2262 52.6546 21.7613Z" fill="white"/>
</svg>
