<svg width="65" height="65" viewBox="0 0 65 65" fill="none" xmlns="http://www.w3.org/2000/svg">
<path d="M57.8813 19.6432C57.5776 18.5163 56.984 17.4886 56.1596 16.6624C55.3353 15.8361 54.3089 15.2402 53.1826 14.9339C49.0066 13.7872 32.3 13.7686 32.3 13.7686C32.3 13.7686 15.596 13.7499 11.4173 14.8459C10.2918 15.1663 9.26751 15.7706 8.44282 16.6009C7.61814 17.4312 7.02074 18.4596 6.70798 19.5872C5.60665 23.7632 5.59598 32.4246 5.59598 32.4246C5.59598 32.4246 5.58532 41.1286 6.67865 45.2619C7.29198 47.5472 9.09198 49.3526 11.38 49.9686C15.5986 51.1152 32.26 51.1339 32.26 51.1339C32.26 51.1339 48.9667 51.1526 53.1427 50.0592C54.2693 49.7535 55.2966 49.1589 56.1231 48.3344C56.9495 47.5098 57.5463 46.4839 57.8547 45.3579C58.9587 41.1846 58.9667 32.5259 58.9667 32.5259C58.9667 32.5259 59.02 23.8192 57.8813 19.6432ZM26.956 40.4486L26.9693 24.4486L40.8547 32.4619L26.956 40.4486Z" fill="white"/>
</svg>
